<?xml version="1.0" encoding="UTF-8" standalone="no"?>
<svg width="525px" height="92px" viewBox="0 0 525 92" version="1.1" xmlns="http://www.w3.org/2000/svg" xmlns:xlink="http://www.w3.org/1999/xlink" xmlns:sketch="http://www.bohemiancoding.com/sketch/ns">
    <!-- Generator: Sketch 3.4.4 (17249) - http://www.bohemiancoding.com/sketch -->
    <title>crub club logo</title>
    <desc>Created with Sketch.</desc>
    <defs></defs>
    <g id="Welcome" stroke="none" stroke-width="1" fill="none" fill-rule="evenodd" sketch:type="MSPage">
        <g id="HOME" sketch:type="MSArtboardGroup" transform="translate(-457.000000, -16.000000)">
            <g id="nav" sketch:type="MSLayerGroup">
                <g id="crub-club-logo" transform="translate(459.000000, 18.000000)" sketch:type="MSShapeGroup">
                    <g id="long-text" transform="translate(51.854305, 28.000000)" fill="#FEF2E7">
                        <path d="M12.2623048,9.74784364 L12.2623048,7.8785 C12.2623048,6.33722727 11.0118304,5.07118182 9.48951374,5.07118182 C7.96719706,5.07118182 6.71672265,6.33722727 6.71672265,7.8785 L6.71672265,22.4611418 C6.71672265,24.0024145 7.96719706,25.26846 9.48951374,25.26846 C11.0118304,25.26846 12.2623048,24.0024145 12.2623048,22.4611418 L12.2623048,20.42446 C12.2623048,19.9290509 12.642884,19.5459345 13.1322001,19.5459345 L14.8719906,19.5459345 C15.3591319,19.5459345 15.7397111,19.9290509 15.7397111,20.42446 L15.7397111,22.4611418 C15.7397111,25.9290055 12.9147263,28.7891673 9.48951374,28.7891673 C6.00993276,28.7891673 3.23714167,25.9290055 3.23714167,22.4611418 L3.23714167,7.8785 C3.23714167,4.41063636 6.00993276,1.54827273 9.48951374,1.54827273 C12.9147263,1.54827273 15.7397111,4.41063636 15.7397111,7.8785 L15.7397111,9.74784364 C15.7397111,10.2432527 15.3591319,10.6285709 14.8719906,10.6285709 L13.1322001,10.6285709 C12.642884,10.6285709 12.2623048,10.2432527 12.2623048,9.74784364" id="Fill-8"></path>
                        <path d="M32.2677207,7.8785 L32.2677207,22.4060964 C32.2677207,25.9290055 29.4405612,28.7891673 26.0175234,28.7891673 C22.5379424,28.7891673 19.7107829,25.9290055 19.7107829,22.4060964 L19.7107829,7.8785 C19.7107829,4.41063636 22.5379424,1.54827273 26.0175234,1.54827273 C29.4405612,1.54827273 32.2677207,4.41063636 32.2677207,7.8785 L32.2677207,7.8785 Z M28.7881397,7.8785 C28.7881397,6.33722727 27.5376653,5.07118182 26.0175234,5.07118182 C24.4408382,5.07118182 23.1903638,6.33722727 23.1903638,7.8785 L23.1903638,22.4060964 C23.1903638,24.0024145 24.4408382,25.26846 26.0175234,25.26846 C27.5376653,25.26846 28.7881397,24.0024145 28.7881397,22.4060964 L28.7881397,7.8785 L28.7881397,7.8785 Z" id="Fill-9"></path>
                        <path d="M40.262058,5.07118182 L40.262058,13.3808436 L44.9921134,13.3808436 C45.4792547,13.3808436 45.8620086,13.7661618 45.8620086,14.2615709 L45.8620086,16.0230255 C45.8620086,16.5184345 45.4792547,16.9015509 44.9921134,16.9015509 L40.262058,16.9015509 L40.262058,27.9106418 C40.262058,28.4060509 39.8814788,28.7891673 39.3921627,28.7891673 L37.6523723,28.7891673 C37.1652309,28.7891673 36.782477,28.4060509 36.782477,27.9106418 L36.782477,3.30972727 C36.782477,2.31890909 37.5436354,1.54827273 38.5222675,1.54827273 L44.9921134,1.54827273 C45.4792547,1.54827273 45.8620086,1.93579273 45.8620086,2.429 L45.8620086,4.19045455 C45.8620086,4.68586364 45.4792547,5.07118182 44.9921134,5.07118182 L40.262058,5.07118182" id="Fill-10"></path>
                        <path d="M53.8541712,5.07118182 L53.8541712,13.3808436 L58.5842266,13.3808436 C59.0713679,13.3808436 59.4541218,13.7661618 59.4541218,14.2615709 L59.4541218,16.0230255 C59.4541218,16.5184345 59.0713679,16.9015509 58.5842266,16.9015509 L53.8541712,16.9015509 L53.8541712,27.9106418 C53.8541712,28.4060509 53.473592,28.7891673 52.9842759,28.7891673 L51.2444854,28.7891673 C50.7573441,28.7891673 50.3745902,28.4060509 50.3745902,27.9106418 L50.3745902,3.30972727 C50.3745902,2.31890909 51.1357485,1.54827273 52.1143807,1.54827273 L58.5842266,1.54827273 C59.0713679,1.54827273 59.4541218,1.93579273 59.4541218,2.429 L59.4541218,4.19045455 C59.4541218,4.68586364 59.0713679,5.07118182 58.5842266,5.07118182 L53.8541712,5.07118182" id="Fill-11"></path>
                        <path d="M67.4462844,5.07118182 L67.4462844,13.3808436 L72.1763397,13.3808436 C72.6634811,13.3808436 73.046235,13.7661618 73.046235,14.2615709 L73.046235,16.0230255 C73.046235,16.5184345 72.6634811,16.9015509 72.1763397,16.9015509 L67.4462844,16.9015509 L67.4462844,25.26846 L72.1763397,25.26846 C72.6634811,25.26846 73.046235,25.6537782 73.046235,26.1491873 L73.046235,27.9106418 C73.046235,28.4060509 72.6634811,28.7891673 72.1763397,28.7891673 L65.7064939,28.7891673 C64.7278617,28.7891673 63.9667034,27.9634855 63.9667034,27.0299145 L63.9667034,3.30972727 C63.9667034,2.31890909 64.7278617,1.54827273 65.7064939,1.54827273 L72.1763397,1.54827273 C72.6634811,1.54827273 73.046235,1.93579273 73.046235,2.429 L73.046235,4.19045455 C73.046235,4.68586364 72.6634811,5.07118182 72.1763397,5.07118182 L67.4462844,5.07118182" id="Fill-12"></path>
                        <path d="M81.0383975,5.07118182 L81.0383975,13.3808436 L85.7684529,13.3808436 C86.2555943,13.3808436 86.6383482,13.7661618 86.6383482,14.2615709 L86.6383482,16.0230255 C86.6383482,16.5184345 86.2555943,16.9015509 85.7684529,16.9015509 L81.0383975,16.9015509 L81.0383975,25.26846 L85.7684529,25.26846 C86.2555943,25.26846 86.6383482,25.6537782 86.6383482,26.1491873 L86.6383482,27.9106418 C86.6383482,28.4060509 86.2555943,28.7891673 85.7684529,28.7891673 L79.2986071,28.7891673 C78.3199749,28.7891673 77.5588166,27.9634855 77.5588166,27.0299145 L77.5588166,3.30972727 C77.5588166,2.31890909 78.3199749,1.54827273 79.2986071,1.54827273 L85.7684529,1.54827273 C86.2555943,1.54827273 86.6383482,1.93579273 86.6383482,2.429 L86.6383482,4.19045455 C86.6383482,4.68586364 86.2555943,5.07118182 85.7684529,5.07118182 L81.0383975,5.07118182" id="Fill-13"></path>
                        <path d="M111.210714,10.51848 C111.210714,12.33498 110.503924,13.9863436 109.307818,15.1422982 C110.503924,16.2982527 111.210714,17.8945709 111.210714,19.7088691 L111.210714,27.9106418 C111.210714,28.3510055 110.830135,28.7891673 110.340819,28.7891673 L108.603203,28.7891673 C108.113887,28.7891673 107.733308,28.3510055 107.733308,27.9106418 L107.733308,19.7088691 C107.733308,18.1697982 106.482833,16.9015509 104.960517,16.9015509 L102.187726,16.9015509 L102.187726,27.9106418 C102.187726,28.3510055 101.752778,28.7891673 101.31783,28.7891673 L99.5780399,28.7891673 C99.0908986,28.7891673 98.7103194,28.3510055 98.7103194,27.9106418 L98.7103194,3.30972727 C98.7103194,2.31890909 99.469303,1.54827273 100.45011,1.54827273 L104.960517,1.54827273 C108.437923,1.54827273 111.210714,4.41063636 111.210714,7.8785 L111.210714,10.51848 L111.210714,10.51848 Z M107.733308,7.8785 C107.733308,6.33722727 106.482833,5.07118182 104.960517,5.07118182 L102.187726,5.07118182 L102.187726,13.3808436 L104.960517,13.3808436 C106.482833,13.3808436 107.733308,12.1147982 107.733308,10.51848 L107.733308,7.8785 L107.733308,7.8785 Z" id="Fill-14"></path>
                        <path d="M128.282408,2.429 L128.282408,22.4060964 C128.282408,25.9290055 125.457423,28.7891673 122.032211,28.7891673 C118.55263,28.7891673 115.727645,25.9290055 115.727645,22.4060964 L115.727645,2.429 C115.727645,1.93579273 116.162593,1.54827273 116.595366,1.54827273 L118.335156,1.54827273 C118.824472,1.54827273 119.205051,1.93579273 119.205051,2.429 L119.205051,22.4060964 C119.205051,24.0024145 120.455526,25.26846 122.032211,25.26846 C123.554528,25.26846 124.805002,24.0024145 124.805002,22.4060964 L124.805002,2.429 C124.805002,1.93579273 125.185581,1.54827273 125.674897,1.54827273 L127.412513,1.54827273 C127.901829,1.54827273 128.282408,1.93579273 128.282408,2.429" id="Fill-15"></path>
                        <path d="M145.354102,7.8785 L145.354102,27.9106418 C145.354102,28.3510055 144.973523,28.7891673 144.486382,28.7891673 L142.746591,28.7891673 C142.257275,28.7891673 141.876696,28.3510055 141.876696,27.9106418 L141.876696,7.8785 C141.876696,6.33722727 140.626222,5.07118182 139.103905,5.07118182 C137.52722,5.07118182 136.276746,6.33722727 136.276746,7.8785 L136.276746,27.9106418 C136.276746,28.3510055 135.896166,28.7891673 135.40685,28.7891673 L133.669235,28.7891673 C133.179918,28.7891673 132.799339,28.3510055 132.799339,27.9106418 L132.799339,7.8785 C132.799339,4.41063636 135.624324,1.54827273 139.103905,1.54827273 C142.529118,1.54827273 145.354102,4.41063636 145.354102,7.8785" id="Fill-16"></path>
                        <path d="M162.427971,7.8785 L162.427971,27.9106418 C162.427971,28.3510055 162.045217,28.7891673 161.558076,28.7891673 L159.818286,28.7891673 C159.328969,28.7891673 158.94839,28.3510055 158.94839,27.9106418 L158.94839,7.8785 C158.94839,6.33722727 157.697916,5.07118182 156.175599,5.07118182 C154.601089,5.07118182 153.34844,6.33722727 153.34844,7.8785 L153.34844,27.9106418 C153.34844,28.3510055 152.970035,28.7891673 152.478544,28.7891673 L150.740929,28.7891673 C150.251613,28.7891673 149.871033,28.3510055 149.871033,27.9106418 L149.871033,7.8785 C149.871033,4.41063636 152.698193,1.54827273 156.175599,1.54827273 C159.600812,1.54827273 162.427971,4.41063636 162.427971,7.8785" id="Fill-17"></path>
                        <path d="M170.420134,5.07118182 L170.420134,13.3808436 L175.150189,13.3808436 C175.639505,13.3808436 176.020084,13.7661618 176.020084,14.2615709 L176.020084,16.0230255 C176.020084,16.5184345 175.639505,16.9015509 175.150189,16.9015509 L170.420134,16.9015509 L170.420134,25.26846 L175.150189,25.26846 C175.639505,25.26846 176.020084,25.6537782 176.020084,26.1491873 L176.020084,27.9106418 C176.020084,28.4060509 175.639505,28.7891673 175.150189,28.7891673 L168.682518,28.7891673 C167.703886,28.7891673 166.942728,27.9634855 166.942728,27.0299145 L166.942728,3.30972727 C166.942728,2.31890909 167.703886,1.54827273 168.682518,1.54827273 L175.150189,1.54827273 C175.639505,1.54827273 176.020084,1.93579273 176.020084,2.429 L176.020084,4.19045455 C176.020084,4.68586364 175.639505,5.07118182 175.150189,5.07118182 L170.420134,5.07118182" id="Fill-18"></path>
                        <path d="M192.765568,10.51848 C192.765568,12.33498 192.058778,13.9863436 190.862672,15.1422982 C192.058778,16.2982527 192.765568,17.8945709 192.765568,19.7088691 L192.765568,27.9106418 C192.765568,28.3510055 192.382814,28.7891673 191.895673,28.7891673 L190.155882,28.7891673 C189.666566,28.7891673 189.285987,28.3510055 189.285987,27.9106418 L189.285987,19.7088691 C189.285987,18.1697982 188.035513,16.9015509 186.513196,16.9015509 L183.740405,16.9015509 L183.740405,27.9106418 C183.740405,28.3510055 183.307632,28.7891673 182.872684,28.7891673 L181.132894,28.7891673 C180.643578,28.7891673 180.262999,28.3510055 180.262999,27.9106418 L180.262999,3.30972727 C180.262999,2.31890909 181.024157,1.54827273 182.002789,1.54827273 L186.513196,1.54827273 C189.992777,1.54827273 192.765568,4.41063636 192.765568,7.8785 L192.765568,10.51848 L192.765568,10.51848 Z M189.285987,7.8785 C189.285987,6.33722727 188.035513,5.07118182 186.513196,5.07118182 L183.740405,5.07118182 L183.740405,13.3808436 L186.513196,13.3808436 C188.035513,13.3808436 189.285987,12.1147982 189.285987,10.51848 L189.285987,7.8785 L189.285987,7.8785 Z" id="Fill-19"></path>
                        <path d="M205.759628,9.74784364 L205.759628,7.8785 C205.759628,6.33722727 204.509154,5.07118182 202.989012,5.07118182 C201.466695,5.07118182 200.216221,6.33722727 200.216221,7.8785 C200.216221,8.59188909 200.216221,8.59188909 200.379326,8.81427273 L207.934366,18.9382327 C209.239209,20.6996873 209.239209,20.6996873 209.239209,22.4611418 C209.239209,25.9290055 206.41205,28.7891673 202.989012,28.7891673 C199.563799,28.7891673 196.73664,25.9290055 196.73664,22.4611418 L196.73664,20.5895964 C196.73664,20.0941873 197.117219,19.7088691 197.606535,19.7088691 L199.346325,19.7088691 C199.835642,19.7088691 200.216221,20.0941873 200.216221,20.5895964 L200.216221,22.4611418 C200.216221,24.0024145 201.466695,25.26846 202.989012,25.26846 C204.509154,25.26846 205.759628,24.0024145 205.759628,22.4611418 C205.759628,21.7455509 205.759628,21.7455509 205.596523,21.5253691 L198.041483,11.3992073 C196.73664,9.63995455 196.73664,9.63995455 196.73664,7.8785 C196.73664,4.41063636 199.563799,1.54827273 202.989012,1.54827273 C206.41205,1.54827273 209.239209,4.41063636 209.239209,7.8785 L209.239209,9.74784364 C209.239209,10.2432527 208.85863,10.6285709 208.369314,10.6285709 L206.629523,10.6285709 C206.140207,10.6285709 205.759628,10.2432527 205.759628,9.74784364" id="Fill-20"></path>
                        <path d="M233.594101,2.429 L233.594101,22.4060964 C233.594101,25.9290055 230.769116,28.7891673 227.343904,28.7891673 C223.866498,28.7891673 221.039338,25.9290055 221.039338,22.4060964 L221.039338,2.429 C221.039338,1.93579273 221.474286,1.54827273 221.909233,1.54827273 L223.649024,1.54827273 C224.13834,1.54827273 224.516744,1.93579273 224.516744,2.429 L224.516744,22.4060964 C224.516744,24.0024145 225.769393,25.26846 227.343904,25.26846 C228.866221,25.26846 230.116695,24.0024145 230.116695,22.4060964 L230.116695,2.429 C230.116695,1.93579273 230.497274,1.54827273 230.98659,1.54827273 L232.726381,1.54827273 C233.213522,1.54827273 233.594101,1.93579273 233.594101,2.429" id="Fill-21"></path>
                        <path d="M250.665795,7.8785 L250.665795,27.9106418 C250.665795,28.3510055 250.285216,28.7891673 249.7959,28.7891673 L248.058284,28.7891673 C247.568968,28.7891673 247.186214,28.3510055 247.186214,27.9106418 L247.186214,7.8785 C247.186214,6.33722727 245.937915,5.07118182 244.415598,5.07118182 C242.838913,5.07118182 241.588438,6.33722727 241.588438,7.8785 L241.588438,27.9106418 C241.588438,28.3510055 241.207859,28.7891673 240.720718,28.7891673 L238.980927,28.7891673 C238.489437,28.7891673 238.108858,28.3510055 238.108858,27.9106418 L238.108858,7.8785 C238.108858,4.41063636 240.936017,1.54827273 244.415598,1.54827273 C247.840811,1.54827273 250.665795,4.41063636 250.665795,7.8785" id="Fill-22"></path>
                        <path d="M258.660133,27.9106418 C258.660133,28.4060509 258.279553,28.7891673 257.790237,28.7891673 L256.050447,28.7891673 C255.561131,28.7891673 255.180552,28.4060509 255.180552,27.9106418 L255.180552,2.429 C255.180552,1.93579273 255.561131,1.54827273 256.050447,1.54827273 L257.790237,1.54827273 C258.22301,1.54827273 258.660133,1.93579273 258.660133,2.429 L258.660133,27.9106418" id="Fill-23"></path>
                        <path d="M272.739387,2.429 L272.739387,4.19045455 C272.739387,4.68586364 272.358808,5.07118182 271.869492,5.07118182 L269.422912,5.07118182 L269.422912,27.9106418 C269.422912,28.3510055 269.042332,28.7891673 268.553016,28.7891673 L266.815401,28.7891673 C266.326084,28.7891673 265.943331,28.3510055 265.943331,27.9106418 L265.943331,5.07118182 L263.498925,5.07118182 C263.009609,5.07118182 262.62903,4.68586364 262.62903,4.19045455 L262.62903,2.429 C262.62903,1.93579273 263.009609,1.54827273 263.498925,1.54827273 L271.869492,1.54827273 C272.358808,1.54827273 272.739387,1.93579273 272.739387,2.429" id="Fill-24"></path>
                        <path d="M280.187865,5.07118182 L280.187865,13.3808436 L284.917921,13.3808436 C285.405062,13.3808436 285.785641,13.7661618 285.785641,14.2615709 L285.785641,16.0230255 C285.785641,16.5184345 285.405062,16.9015509 284.917921,16.9015509 L280.187865,16.9015509 L280.187865,25.26846 L284.917921,25.26846 C285.405062,25.26846 285.785641,25.6537782 285.785641,26.1491873 L285.785641,27.9106418 C285.785641,28.4060509 285.405062,28.7891673 284.917921,28.7891673 L278.448075,28.7891673 C277.471617,28.7891673 276.708284,27.9634855 276.708284,27.0299145 L276.708284,3.30972727 C276.708284,2.31890909 277.471617,1.54827273 278.448075,1.54827273 L284.917921,1.54827273 C285.405062,1.54827273 285.785641,1.93579273 285.785641,2.429 L285.785641,4.19045455 C285.785641,4.68586364 285.405062,5.07118182 284.917921,5.07118182 L280.187865,5.07118182" id="Fill-25"></path>
                        <path d="M302.857335,7.93354545 L302.857335,22.4060964 C302.857335,25.9290055 300.084544,28.7891673 296.607138,28.7891673 L292.040188,28.7891673 C291.115924,28.7891673 290.300397,27.9634855 290.300397,27.0299145 L290.300397,3.30972727 C290.300397,2.31890909 291.115924,1.54827273 292.040188,1.54827273 L296.607138,1.54827273 C300.084544,1.54827273 302.857335,4.41063636 302.857335,7.93354545 L302.857335,7.93354545 Z M299.377754,7.93354545 C299.377754,6.33722727 298.129455,5.07118182 296.607138,5.07118182 L293.779978,5.07118182 L293.779978,25.2134145 L296.607138,25.2134145 C298.129455,25.2134145 299.377754,23.9473691 299.377754,22.4060964 L299.377754,7.93354545 L299.377754,7.93354545 Z" id="Fill-26"></path>
                        <path d="M327.755912,10.5735255 C327.755912,12.3900255 327.051297,13.9863436 325.800822,15.1422982 C327.051297,16.2982527 327.755912,17.9496164 327.755912,19.7639145 L327.755912,22.4060964 C327.755912,25.9290055 324.928752,28.7891673 321.505715,28.7891673 L316.938765,28.7891673 C315.962307,28.7891673 315.201149,27.9634855 315.201149,27.0299145 L315.201149,3.30972727 C315.201149,2.31890909 315.962307,1.54827273 316.938765,1.54827273 L321.505715,1.54827273 C324.928752,1.54827273 327.755912,4.41063636 327.755912,7.93354545 L327.755912,10.5735255 L327.755912,10.5735255 Z M324.276331,7.93354545 C324.276331,6.33722727 323.028031,5.07118182 321.505715,5.07118182 L318.678555,5.07118182 L318.678555,13.3808436 L321.505715,13.3808436 C323.028031,13.3808436 324.276331,12.1147982 324.276331,10.5735255 L324.276331,7.93354545 L324.276331,7.93354545 Z M321.505715,16.9015509 L318.678555,16.9015509 L318.678555,25.2134145 L321.505715,25.2134145 C323.028031,25.2134145 324.276331,23.9473691 324.276331,22.4060964 L324.276331,19.7639145 C324.276331,18.1697982 323.028031,16.9015509 321.505715,16.9015509 L321.505715,16.9015509 Z" id="Fill-27"></path>
                        <path d="M344.501395,10.51848 C344.501395,12.33498 343.794605,13.9863436 342.598499,15.1422982 C343.794605,16.2982527 344.501395,17.8945709 344.501395,19.7088691 L344.501395,27.9106418 C344.501395,28.3510055 344.120816,28.7891673 343.6315,28.7891673 L341.89171,28.7891673 C341.402393,28.7891673 341.023989,28.3510055 341.023989,27.9106418 L341.023989,19.7088691 C341.023989,18.1697982 339.77134,16.9015509 338.251198,16.9015509 L335.478407,16.9015509 L335.478407,27.9106418 C335.478407,28.3510055 335.043459,28.7891673 334.608512,28.7891673 L332.870896,28.7891673 C332.379405,28.7891673 331.998826,28.3510055 331.998826,27.9106418 L331.998826,3.30972727 C331.998826,2.31890909 332.762159,1.54827273 333.738616,1.54827273 L338.251198,1.54827273 C341.730779,1.54827273 344.501395,4.41063636 344.501395,7.8785 L344.501395,10.51848 L344.501395,10.51848 Z M341.023989,7.8785 C341.023989,6.33722727 339.77134,5.07118182 338.251198,5.07118182 L335.478407,5.07118182 L335.478407,13.3808436 L338.251198,13.3808436 C339.77134,13.3808436 341.023989,12.1147982 341.023989,10.51848 L341.023989,7.8785 L341.023989,7.8785 Z" id="Fill-28"></path>
                        <path d="M352.495733,27.9106418 C352.495733,28.4060509 352.115153,28.7891673 351.628012,28.7891673 L349.888222,28.7891673 C349.396731,28.7891673 349.016152,28.4060509 349.016152,27.9106418 L349.016152,2.429 C349.016152,1.93579273 349.396731,1.54827273 349.888222,1.54827273 L351.628012,1.54827273 C352.060785,1.54827273 352.495733,1.93579273 352.495733,2.429 L352.495733,27.9106418" id="Fill-29"></path>
                        <path d="M366.033477,9.80288909 L366.033477,7.93354545 C366.033477,6.33722727 364.780828,5.12622727 363.258511,5.12622727 C361.73837,5.12622727 360.487895,6.33722727 360.487895,7.93354545 L360.487895,22.5161873 C360.487895,24.05746 361.73837,25.3235055 363.258511,25.3235055 C364.780828,25.3235055 366.033477,24.05746 366.033477,22.5161873 L366.033477,16.8487073 L364.130581,16.8487073 C363.641265,16.8487073 363.258511,16.4633891 363.258511,16.0230255 L363.258511,14.2615709 C363.258511,13.7661618 363.641265,13.3808436 364.130581,13.3808436 L368.640988,13.3808436 C369.130304,13.3808436 369.510884,13.7661618 369.510884,14.2615709 L369.510884,22.5161873 C369.510884,25.9840509 366.683724,28.7891673 363.258511,28.7891673 C359.835474,28.7891673 357.008314,25.9840509 357.008314,22.5161873 L357.008314,7.93354545 C357.008314,4.41063636 359.835474,1.60331818 363.258511,1.60331818 C366.683724,1.60331818 369.510884,4.41063636 369.510884,7.93354545 L369.510884,9.80288909 C369.510884,10.2982982 369.130304,10.6836164 368.640988,10.6836164 L366.901198,10.6836164 C366.411882,10.6836164 366.033477,10.2982982 366.033477,9.80288909" id="Fill-30"></path>
                        <path d="M386.582578,7.93354545 L386.582578,27.9106418 C386.582578,28.4060509 386.201999,28.7891673 385.712682,28.7891673 L383.975067,28.7891673 C383.485751,28.7891673 383.102997,28.4060509 383.102997,27.9106418 L383.102997,16.9587982 L377.505221,16.9587982 L377.505221,27.9106418 C377.505221,28.4060509 377.124642,28.7891673 376.6375,28.7891673 L374.89771,28.7891673 C374.406219,28.7891673 374.02564,28.4060509 374.02564,27.9106418 L374.02564,7.93354545 C374.02564,4.46568182 376.852799,1.60331818 380.33238,1.60331818 C383.757593,1.60331818 386.582578,4.46568182 386.582578,7.93354545 L386.582578,7.93354545 Z M383.102997,7.93354545 C383.102997,6.39227273 381.854697,5.12622727 380.33238,5.12622727 C378.755695,5.12622727 377.505221,6.39227273 377.505221,7.93354545 L377.505221,13.4358891 L383.102997,13.4358891 L383.102997,7.93354545 L383.102997,7.93354545 Z" id="Fill-31"></path>
                        <path d="M403.654272,7.93354545 L403.654272,22.4060964 C403.654272,25.9290055 400.881481,28.7891673 397.4019,28.7891673 L392.837125,28.7891673 C391.912861,28.7891673 391.097334,27.9634855 391.097334,27.0299145 L391.097334,3.30972727 C391.097334,2.31890909 391.912861,1.54827273 392.837125,1.54827273 L397.4019,1.54827273 C400.881481,1.54827273 403.654272,4.41063636 403.654272,7.93354545 L403.654272,7.93354545 Z M400.174691,7.93354545 C400.174691,6.33722727 398.926391,5.07118182 397.4019,5.07118182 L394.576915,5.07118182 L394.576915,25.2134145 L397.4019,25.2134145 C398.926391,25.2134145 400.174691,23.9473691 400.174691,22.4060964 L400.174691,7.93354545 L400.174691,7.93354545 Z" id="Fill-32"></path>
                        <path d="M411.646434,5.07118182 L411.646434,13.3808436 L416.37649,13.3808436 C416.865806,13.3808436 417.246385,13.7661618 417.246385,14.2615709 L417.246385,16.0230255 C417.246385,16.5184345 416.865806,16.9015509 416.37649,16.9015509 L411.646434,16.9015509 L411.646434,25.26846 L416.37649,25.26846 C416.865806,25.26846 417.246385,25.6537782 417.246385,26.1491873 L417.246385,27.9106418 C417.246385,28.4060509 416.865806,28.7891673 416.37649,28.7891673 L409.906644,28.7891673 C408.930187,28.7891673 408.169028,27.9634855 408.169028,27.0299145 L408.169028,3.30972727 C408.169028,2.31890909 408.930187,1.54827273 409.906644,1.54827273 L416.37649,1.54827273 C416.865806,1.54827273 417.246385,1.93579273 417.246385,2.429 L417.246385,4.19045455 C417.246385,4.68586364 416.865806,5.07118182 416.37649,5.07118182 L411.646434,5.07118182" id="Fill-33"></path>
                    </g>
                    <path d="M518.932639,0.0659272727 L179.275517,0.0659272727 L179.275517,3.36865455 L512.69114,3.36865455 L489.488859,37.1423436 L513.132612,70.3699818 L179.782231,70.3699818 L179.782231,73.6727091 L519.504595,73.6727091 L493.483853,37.1093164 L518.932639,0.0659272727" id="Fill-34" fill="#AE9786"></path>
                    <path d="M341.967675,10.3264 L2.31055239,10.3264 L27.7615125,47.3719909 L1.73859627,83.9331818 L341.463135,83.9331818 L341.463135,80.6304545 L8.11057893,80.6304545 L31.7565064,47.4050182 L8.55205076,13.6291273 L341.967675,13.6291273 L341.967675,10.3264" id="Fill-35" fill="#AE9786"></path>
                </g>
            </g>
        </g>
    </g>
</svg>