<?xml version="1.0" encoding="UTF-8" standalone="no"?>
<svg width="181px" height="181px" viewBox="0 0 181 181" version="1.1" xmlns="http://www.w3.org/2000/svg" xmlns:xlink="http://www.w3.org/1999/xlink" xmlns:sketch="http://www.bohemiancoding.com/sketch/ns">
    <!-- Generator: Sketch 3.4.2 (15857) - http://www.bohemiancoding.com/sketch -->
    <title>crub club logo</title>
    <desc>Created with Sketch.</desc>
    <defs></defs>
    <g id="Welcome" stroke="none" stroke-width="1" fill="none" fill-rule="evenodd" sketch:type="MSPage">
        <g id="WRITE-A-REVIEW" sketch:type="MSArtboardGroup" transform="translate(-248.000000, -2.000000)">
            <g id="nav" sketch:type="MSLayerGroup">
                <g id="crub-club-logo" transform="translate(252.000000, 4.000000)" sketch:type="MSShapeGroup">
                    <path d="M172.580396,86.4477855 C172.580396,133.959876 134.064305,172.475338 86.5522145,172.475338 C39.0401236,172.475338 0.524032727,133.959876 0.524032727,86.4477855 C0.524032727,38.9356945 39.0401236,0.419603636 86.5522145,0.419603636 C134.064305,0.419603636 172.580396,38.9356945 172.580396,86.4477855" id="Fill-1" fill="#FEF2E7"></path>
                    <path d="M169.54,85.8709091 C169.54,131.559265 132.502902,168.596364 86.8145455,168.596364 C41.1261891,168.596364 4.08909091,131.559265 4.08909091,85.8709091 C4.08909091,40.1831818 41.1261891,3.14545455 86.8145455,3.14545455 C132.502902,3.14545455 169.54,40.1831818 169.54,85.8709091" id="Fill-2" fill="#381D16"></path>
                    <path d="M51.6917709,58.5010509 L53.9615309,66.7629018 C51.1016836,67.7166036 47.2434691,68.6696764 42.8404618,68.6696764 C32.7624255,68.6696764 25.9531455,62.5863673 25.9531455,52.7360618 C25.9531455,42.8404618 32.7624255,36.8024473 42.8404618,36.8024473 C47.2434691,36.8024473 51.1016836,37.7561491 53.9615309,38.7092218 L51.6917709,46.9710727 C50.1939055,46.3356909 48.0153636,45.8361927 45.7908982,45.8361927 C40.7971745,45.8361927 37.9826218,48.3783491 37.9826218,52.7360618 C37.9826218,57.0937745 40.7971745,59.6359309 45.7908982,59.6359309 C48.0153636,59.6359309 50.1939055,59.1364327 51.6917709,58.5010509" id="Fill-3" fill="#FEF2E7"></path>
                    <path d="M85.6891018,68.0795891 L73.9320218,68.0795891 C72.0711709,58.4557564 70.6179709,58.5010509 67.0774473,58.5010509 L67.0774473,68.0795891 L55.6833527,68.0795891 L55.6833527,37.7102255 C58.3167273,37.2566509 63.4004109,36.8024473 67.4857273,36.8024473 C76.2923709,36.8024473 84.9631309,38.9363236 84.9631309,47.4699418 C84.9631309,52.2365636 81.8308873,54.3251455 79.3340255,55.4600255 C81.9214764,55.9588945 84.4183382,58.7734473 85.6891018,68.0795891 L85.6891018,68.0795891 Z M73.4784473,48.1512473 C73.4784473,45.6090909 70.3914982,45.0642982 68.3941345,45.0642982 C67.8493418,45.0642982 67.3951382,45.1102218 67.0321527,45.1548873 L67.0321527,51.2834909 C67.3498436,51.3287855 67.6681636,51.3287855 68.0764436,51.3287855 C70.0278836,51.3287855 73.4784473,50.8752109 73.4784473,48.1512473 L73.4784473,48.1512473 Z" id="Fill-4" fill="#FEF2E7"></path>
                    <path d="M116.417676,37.3931636 L116.417676,55.9588945 C116.417676,64.6749491 110.879789,68.6696764 101.573647,68.6696764 C92.2681345,68.6696764 86.7755418,64.6749491 86.7755418,55.9588945 L86.7755418,37.3931636 L98.6225818,37.3931636 L98.6225818,55.8230109 C98.6225818,58.0021818 99.0767855,59.6359309 101.573647,59.6359309 C104.115804,59.6359309 104.570007,57.9562582 104.570007,55.8230109 L104.570007,37.3931636 L116.417676,37.3931636" id="Fill-5" fill="#FEF2E7"></path>
                    <path d="M129.895949,68.6696764 C125.855927,68.6696764 121.634727,68.3519855 119.092571,68.0336655 L119.092571,37.5743418 C121.543509,37.2566509 125.765338,36.8024473 129.760065,36.8024473 C137.704225,36.8024473 146.510869,38.5274145 146.510869,46.0173709 C146.510869,49.3767164 144.603465,51.4193745 142.379629,52.50896 C144.376993,52.9178691 148.054029,55.0511164 148.054029,59.5000473 C148.054029,67.0805927 139.565076,68.6696764 129.895949,68.6696764 L129.895949,68.6696764 Z M130.350153,49.4220109 C130.759062,49.4679345 131.620916,49.4679345 132.029196,49.4679345 C133.800087,49.4679345 135.978629,49.0137309 135.978629,46.7892655 C135.978629,44.7919018 133.845382,44.2930327 132.165709,44.2930327 C131.7568,44.2930327 130.803727,44.3383273 130.350153,44.3836218 L130.350153,49.4220109 L130.350153,49.4220109 Z M136.932331,58.1380655 C136.932331,55.6871273 134.117149,55.3235127 132.256298,55.3235127 C131.848018,55.3235127 130.803727,55.3688073 130.350153,55.4141018 L130.350153,60.8620291 C130.667844,60.9073236 131.939236,60.9073236 132.392811,60.9073236 C134.253662,60.9073236 136.932331,60.3625309 136.932331,58.1380655 L136.932331,58.1380655 Z" id="Fill-6" fill="#FEF2E7"></path>
                    <path d="M172.370909,86.3427273 L171.741818,86.3427273 C171.741818,109.840531 162.219269,131.107578 146.821011,146.507095 C131.422124,161.905353 110.155076,171.426644 86.6572727,171.427273 C63.1594691,171.426644 41.8924218,161.905353 26.4935345,146.507095 C11.0952764,131.107578 1.57272727,109.840531 1.57272727,86.3427273 C1.57335636,62.8455527 11.0952764,41.5778764 26.4935345,26.1789891 C41.8924218,10.7807309 63.1594691,1.25818182 86.6572727,1.25818182 C110.155076,1.25818182 131.422124,10.7807309 146.821011,26.1789891 C162.219269,41.5778764 171.741189,62.8455527 171.741818,86.3427273 L173,86.3427273 C172.999371,38.6570073 134.343622,0.000629090909 86.6572727,0 C38.9709236,0.000629090909 0.315174545,38.6570073 0.314545455,86.3427273 C0.315174545,134.029705 38.9709236,172.684825 86.6572727,172.685455 C134.343622,172.684825 172.999371,134.029705 173,86.3427273 L172.370909,86.3427273" id="Fill-7" fill="#381D16"></path>
                    <path d="M29.5471418,84.7850982 L29.5471418,84.251 C29.5471418,83.8106364 29.1854145,83.4489091 28.7450509,83.4489091 C28.3046873,83.4489091 27.94296,83.8106364 27.94296,84.251 L27.94296,88.4174691 C27.94296,88.8578327 28.3046873,89.21956 28.7450509,89.21956 C29.1854145,89.21956 29.5471418,88.8578327 29.5471418,88.4174691 L29.5471418,87.83556 C29.5471418,87.6940145 29.6572327,87.5845527 29.7987782,87.5845527 L30.3020509,87.5845527 C30.4429673,87.5845527 30.5530582,87.6940145 30.5530582,87.83556 L30.5530582,88.4174691 C30.5530582,89.4082873 29.7358691,90.2254764 28.7450509,90.2254764 C27.7385055,90.2254764 26.9364145,89.4082873 26.9364145,88.4174691 L26.9364145,84.251 C26.9364145,83.2601818 27.7385055,82.4423636 28.7450509,82.4423636 C29.7358691,82.4423636 30.5530582,83.2601818 30.5530582,84.251 L30.5530582,84.7850982 C30.5530582,84.9266436 30.4429673,85.0367345 30.3020509,85.0367345 L29.7987782,85.0367345 C29.6572327,85.0367345 29.5471418,84.9266436 29.5471418,84.7850982" id="Fill-8" fill="#FEF2E7"></path>
                    <path d="M35.3341491,84.251 L35.3341491,88.4017418 C35.3341491,89.4082873 34.5163309,90.2254764 33.5261418,90.2254764 C32.5195964,90.2254764 31.7017782,89.4082873 31.7017782,88.4017418 L31.7017782,84.251 C31.7017782,83.2601818 32.5195964,82.4423636 33.5261418,82.4423636 C34.5163309,82.4423636 35.3341491,83.2601818 35.3341491,84.251 L35.3341491,84.251 Z M34.3276036,84.251 C34.3276036,83.8106364 33.9658764,83.4489091 33.5261418,83.4489091 C33.0700509,83.4489091 32.7083236,83.8106364 32.7083236,84.251 L32.7083236,88.4017418 C32.7083236,88.8578327 33.0700509,89.21956 33.5261418,89.21956 C33.9658764,89.21956 34.3276036,88.8578327 34.3276036,88.4017418 L34.3276036,84.251 L34.3276036,84.251 Z" id="Fill-9" fill="#FEF2E7"></path>
                    <path d="M37.6466873,83.4489091 L37.6466873,85.8230982 L39.01496,85.8230982 C39.1558764,85.8230982 39.2665964,85.9331891 39.2665964,86.0747345 L39.2665964,86.5780073 C39.2665964,86.7195527 39.1558764,86.8290145 39.01496,86.8290145 L37.6466873,86.8290145 L37.6466873,89.9744691 C37.6466873,90.1160145 37.5365964,90.2254764 37.3950509,90.2254764 L36.8917782,90.2254764 C36.7508618,90.2254764 36.6401418,90.1160145 36.6401418,89.9744691 L36.6401418,82.9456364 C36.6401418,82.6625455 36.8603236,82.4423636 37.1434145,82.4423636 L39.01496,82.4423636 C39.1558764,82.4423636 39.2665964,82.5530836 39.2665964,82.694 L39.2665964,83.1972727 C39.2665964,83.3388182 39.1558764,83.4489091 39.01496,83.4489091 L37.6466873,83.4489091" id="Fill-10" fill="#FEF2E7"></path>
                    <path d="M41.5785055,83.4489091 L41.5785055,85.8230982 L42.9467782,85.8230982 C43.0876945,85.8230982 43.1984145,85.9331891 43.1984145,86.0747345 L43.1984145,86.5780073 C43.1984145,86.7195527 43.0876945,86.8290145 42.9467782,86.8290145 L41.5785055,86.8290145 L41.5785055,89.9744691 C41.5785055,90.1160145 41.4684145,90.2254764 41.3268691,90.2254764 L40.8235964,90.2254764 C40.68268,90.2254764 40.57196,90.1160145 40.57196,89.9744691 L40.57196,82.9456364 C40.57196,82.6625455 40.7921418,82.4423636 41.0752327,82.4423636 L42.9467782,82.4423636 C43.0876945,82.4423636 43.1984145,82.5530836 43.1984145,82.694 L43.1984145,83.1972727 C43.1984145,83.3388182 43.0876945,83.4489091 42.9467782,83.4489091 L41.5785055,83.4489091" id="Fill-11" fill="#FEF2E7"></path>
                    <path d="M45.5103236,83.4489091 L45.5103236,85.8230982 L46.8785964,85.8230982 C47.0195127,85.8230982 47.1302327,85.9331891 47.1302327,86.0747345 L47.1302327,86.5780073 C47.1302327,86.7195527 47.0195127,86.8290145 46.8785964,86.8290145 L45.5103236,86.8290145 L45.5103236,89.21956 L46.8785964,89.21956 C47.0195127,89.21956 47.1302327,89.3296509 47.1302327,89.4711964 L47.1302327,89.9744691 C47.1302327,90.1160145 47.0195127,90.2254764 46.8785964,90.2254764 L45.0070509,90.2254764 C44.72396,90.2254764 44.5037782,89.9895673 44.5037782,89.7228327 L44.5037782,82.9456364 C44.5037782,82.6625455 44.72396,82.4423636 45.0070509,82.4423636 L46.8785964,82.4423636 C47.0195127,82.4423636 47.1302327,82.5530836 47.1302327,82.694 L47.1302327,83.1972727 C47.1302327,83.3388182 47.0195127,83.4489091 46.8785964,83.4489091 L45.5103236,83.4489091" id="Fill-12" fill="#FEF2E7"></path>
                    <path d="M49.4421418,83.4489091 L49.4421418,85.8230982 L50.8104145,85.8230982 C50.9513309,85.8230982 51.0620509,85.9331891 51.0620509,86.0747345 L51.0620509,86.5780073 C51.0620509,86.7195527 50.9513309,86.8290145 50.8104145,86.8290145 L49.4421418,86.8290145 L49.4421418,89.21956 L50.8104145,89.21956 C50.9513309,89.21956 51.0620509,89.3296509 51.0620509,89.4711964 L51.0620509,89.9744691 C51.0620509,90.1160145 50.9513309,90.2254764 50.8104145,90.2254764 L48.9388691,90.2254764 C48.6557782,90.2254764 48.4355964,89.9895673 48.4355964,89.7228327 L48.4355964,82.9456364 C48.4355964,82.6625455 48.6557782,82.4423636 48.9388691,82.4423636 L50.8104145,82.4423636 C50.9513309,82.4423636 51.0620509,82.5530836 51.0620509,82.694 L51.0620509,83.1972727 C51.0620509,83.3388182 50.9513309,83.4489091 50.8104145,83.4489091 L49.4421418,83.4489091" id="Fill-13" fill="#FEF2E7"></path>
                    <path d="M58.1701491,85.00528 C58.1701491,85.52428 57.9656945,85.9960982 57.6196945,86.3263709 C57.9656945,86.6566436 58.1701491,87.1127345 58.1701491,87.6311055 L58.1701491,89.9744691 C58.1701491,90.1002873 58.0600582,90.2254764 57.9185127,90.2254764 L57.4158691,90.2254764 C57.2743236,90.2254764 57.1642327,90.1002873 57.1642327,89.9744691 L57.1642327,87.6311055 C57.1642327,87.1913709 56.8025055,86.8290145 56.3621418,86.8290145 L55.5600509,86.8290145 L55.5600509,89.9744691 C55.5600509,90.1002873 55.4342327,90.2254764 55.3084145,90.2254764 L54.8051418,90.2254764 C54.6642255,90.2254764 54.5541345,90.1002873 54.5541345,89.9744691 L54.5541345,82.9456364 C54.5541345,82.6625455 54.7736873,82.4423636 55.0574073,82.4423636 L56.3621418,82.4423636 C57.3680582,82.4423636 58.1701491,83.2601818 58.1701491,84.251 L58.1701491,85.00528 L58.1701491,85.00528 Z M57.1642327,84.251 C57.1642327,83.8106364 56.8025055,83.4489091 56.3621418,83.4489091 L55.5600509,83.4489091 L55.5600509,85.8230982 L56.3621418,85.8230982 C56.8025055,85.8230982 57.1642327,85.4613709 57.1642327,85.00528 L57.1642327,84.251 L57.1642327,84.251 Z" id="Fill-14" fill="#FEF2E7"></path>
                    <path d="M63.1085127,82.694 L63.1085127,88.4017418 C63.1085127,89.4082873 62.2913236,90.2254764 61.3005055,90.2254764 C60.29396,90.2254764 59.4767709,89.4082873 59.4767709,88.4017418 L59.4767709,82.694 C59.4767709,82.5530836 59.6025891,82.4423636 59.7277782,82.4423636 L60.2310509,82.4423636 C60.3725964,82.4423636 60.4826873,82.5530836 60.4826873,82.694 L60.4826873,88.4017418 C60.4826873,88.8578327 60.8444145,89.21956 61.3005055,89.21956 C61.7408691,89.21956 62.1025964,88.8578327 62.1025964,88.4017418 L62.1025964,82.694 C62.1025964,82.5530836 62.2126873,82.4423636 62.3542327,82.4423636 L62.8568764,82.4423636 C62.9984218,82.4423636 63.1085127,82.5530836 63.1085127,82.694" id="Fill-15" fill="#FEF2E7"></path>
                    <path d="M68.0468764,84.251 L68.0468764,89.9744691 C68.0468764,90.1002873 67.9367855,90.2254764 67.7958691,90.2254764 L67.2925964,90.2254764 C67.1510509,90.2254764 67.04096,90.1002873 67.04096,89.9744691 L67.04096,84.251 C67.04096,83.8106364 66.6792327,83.4489091 66.2388691,83.4489091 C65.7827782,83.4489091 65.4210509,83.8106364 65.4210509,84.251 L65.4210509,89.9744691 C65.4210509,90.1002873 65.31096,90.2254764 65.1694145,90.2254764 L64.6667709,90.2254764 C64.5252255,90.2254764 64.4151345,90.1002873 64.4151345,89.9744691 L64.4151345,84.251 C64.4151345,83.2601818 65.2323236,82.4423636 66.2388691,82.4423636 C67.2296873,82.4423636 68.0468764,83.2601818 68.0468764,84.251" id="Fill-16" fill="#FEF2E7"></path>
                    <path d="M72.9858691,84.251 L72.9858691,89.9744691 C72.9858691,90.1002873 72.8751491,90.2254764 72.7342327,90.2254764 L72.23096,90.2254764 C72.0894145,90.2254764 71.9793236,90.1002873 71.9793236,89.9744691 L71.9793236,84.251 C71.9793236,83.8106364 71.6175964,83.4489091 71.1772327,83.4489091 C70.7217709,83.4489091 70.3594145,83.8106364 70.3594145,84.251 L70.3594145,89.9744691 C70.3594145,90.1002873 70.2499527,90.2254764 70.1077782,90.2254764 L69.6051345,90.2254764 C69.4635891,90.2254764 69.3534982,90.1002873 69.3534982,89.9744691 L69.3534982,84.251 C69.3534982,83.2601818 70.1713164,82.4423636 71.1772327,82.4423636 C72.1680509,82.4423636 72.9858691,83.2601818 72.9858691,84.251" id="Fill-17" fill="#FEF2E7"></path>
                    <path d="M75.2977782,83.4489091 L75.2977782,85.8230982 L76.6660509,85.8230982 C76.8075964,85.8230982 76.9176873,85.9331891 76.9176873,86.0747345 L76.9176873,86.5780073 C76.9176873,86.7195527 76.8075964,86.8290145 76.6660509,86.8290145 L75.2977782,86.8290145 L75.2977782,89.21956 L76.6660509,89.21956 C76.8075964,89.21956 76.9176873,89.3296509 76.9176873,89.4711964 L76.9176873,89.9744691 C76.9176873,90.1160145 76.8075964,90.2254764 76.6660509,90.2254764 L74.7951345,90.2254764 C74.5120436,90.2254764 74.2918618,89.9895673 74.2918618,89.7228327 L74.2918618,82.9456364 C74.2918618,82.6625455 74.5120436,82.4423636 74.7951345,82.4423636 L76.6660509,82.4423636 C76.8075964,82.4423636 76.9176873,82.5530836 76.9176873,82.694 L76.9176873,83.1972727 C76.9176873,83.3388182 76.8075964,83.4489091 76.6660509,83.4489091 L75.2977782,83.4489091" id="Fill-18" fill="#FEF2E7"></path>
                    <path d="M81.7616873,85.00528 C81.7616873,85.52428 81.5572327,85.9960982 81.2112327,86.3263709 C81.5572327,86.6566436 81.7616873,87.1127345 81.7616873,87.6311055 L81.7616873,89.9744691 C81.7616873,90.1002873 81.6509673,90.2254764 81.5100509,90.2254764 L81.0067782,90.2254764 C80.8652327,90.2254764 80.7551418,90.1002873 80.7551418,89.9744691 L80.7551418,87.6311055 C80.7551418,87.1913709 80.3934145,86.8290145 79.9530509,86.8290145 L79.15096,86.8290145 L79.15096,89.9744691 C79.15096,90.1002873 79.0257709,90.2254764 78.8999527,90.2254764 L78.39668,90.2254764 C78.2551345,90.2254764 78.1450436,90.1002873 78.1450436,89.9744691 L78.1450436,82.9456364 C78.1450436,82.6625455 78.3652255,82.4423636 78.6483164,82.4423636 L79.9530509,82.4423636 C80.9595964,82.4423636 81.7616873,83.2601818 81.7616873,84.251 L81.7616873,85.00528 L81.7616873,85.00528 Z M80.7551418,84.251 C80.7551418,83.8106364 80.3934145,83.4489091 79.9530509,83.4489091 L79.15096,83.4489091 L79.15096,85.8230982 L79.9530509,85.8230982 C80.3934145,85.8230982 80.7551418,85.4613709 80.7551418,85.00528 L80.7551418,84.251 L80.7551418,84.251 Z" id="Fill-19" fill="#FEF2E7"></path>
                    <path d="M85.5205055,84.7850982 L85.5205055,84.251 C85.5205055,83.8106364 85.1587782,83.4489091 84.7190436,83.4489091 C84.27868,83.4489091 83.9169527,83.8106364 83.9169527,84.251 C83.9169527,84.4548255 83.9169527,84.4548255 83.9641345,84.5183636 L86.1495964,87.4109236 C86.5270509,87.9141964 86.5270509,87.9141964 86.5270509,88.4174691 C86.5270509,89.4082873 85.7092327,90.2254764 84.7190436,90.2254764 C83.7282255,90.2254764 82.9104073,89.4082873 82.9104073,88.4174691 L82.9104073,87.8827418 C82.9104073,87.7411964 83.0204982,87.6311055 83.1620436,87.6311055 L83.6653164,87.6311055 C83.8068618,87.6311055 83.9169527,87.7411964 83.9169527,87.8827418 L83.9169527,88.4174691 C83.9169527,88.8578327 84.27868,89.21956 84.7190436,89.21956 C85.1587782,89.21956 85.5205055,88.8578327 85.5205055,88.4174691 C85.5205055,88.2130145 85.5205055,88.2130145 85.4733236,88.1501055 L83.2878618,85.2569164 C82.9104073,84.7542727 82.9104073,84.7542727 82.9104073,84.251 C82.9104073,83.2601818 83.7282255,82.4423636 84.7190436,82.4423636 C85.7092327,82.4423636 86.5270509,83.2601818 86.5270509,84.251 L86.5270509,84.7850982 C86.5270509,84.9266436 86.41696,85.0367345 86.2754145,85.0367345 L85.7721418,85.0367345 C85.6305964,85.0367345 85.5205055,84.9266436 85.5205055,84.7850982" id="Fill-20" fill="#FEF2E7"></path>
                    <path d="M93.57224,82.694 L93.57224,88.4017418 C93.57224,89.4082873 92.7550509,90.2254764 91.7642327,90.2254764 C90.7583164,90.2254764 89.9404982,89.4082873 89.9404982,88.4017418 L89.9404982,82.694 C89.9404982,82.5530836 90.0663164,82.4423636 90.1921345,82.4423636 L90.6954073,82.4423636 C90.8369527,82.4423636 90.9464145,82.5530836 90.9464145,82.694 L90.9464145,88.4017418 C90.9464145,88.8578327 91.3087709,89.21956 91.7642327,89.21956 C92.2045964,89.21956 92.5663236,88.8578327 92.5663236,88.4017418 L92.5663236,82.694 C92.5663236,82.5530836 92.6764145,82.4423636 92.81796,82.4423636 L93.3212327,82.4423636 C93.4621491,82.4423636 93.57224,82.5530836 93.57224,82.694" id="Fill-21" fill="#FEF2E7"></path>
                    <path d="M98.5106036,84.251 L98.5106036,89.9744691 C98.5106036,90.1002873 98.4005127,90.2254764 98.2589673,90.2254764 L97.7563236,90.2254764 C97.6147782,90.2254764 97.5040582,90.1002873 97.5040582,89.9744691 L97.5040582,84.251 C97.5040582,83.8106364 97.14296,83.4489091 96.7025964,83.4489091 C96.2465055,83.4489091 95.8847782,83.8106364 95.8847782,84.251 L95.8847782,89.9744691 C95.8847782,90.1002873 95.7746873,90.2254764 95.6337709,90.2254764 L95.1304982,90.2254764 C94.9883236,90.2254764 94.8782327,90.1002873 94.8782327,89.9744691 L94.8782327,84.251 C94.8782327,83.2601818 95.6960509,82.4423636 96.7025964,82.4423636 C97.6934145,82.4423636 98.5106036,83.2601818 98.5106036,84.251" id="Fill-22" fill="#FEF2E7"></path>
                    <path d="M100.823142,89.9744691 C100.823142,90.1160145 100.713051,90.2254764 100.571505,90.2254764 L100.068233,90.2254764 C99.9266873,90.2254764 99.8165964,90.1160145 99.8165964,89.9744691 L99.8165964,82.694 C99.8165964,82.5530836 99.9266873,82.4423636 100.068233,82.4423636 L100.571505,82.4423636 C100.696695,82.4423636 100.823142,82.5530836 100.823142,82.694 L100.823142,89.9744691" id="Fill-23" fill="#FEF2E7"></path>
                    <path d="M104.895876,82.694 L104.895876,83.1972727 C104.895876,83.3388182 104.785785,83.4489091 104.64424,83.4489091 L103.936513,83.4489091 L103.936513,89.9744691 C103.936513,90.1002873 103.826422,90.2254764 103.684876,90.2254764 L103.182233,90.2254764 C103.040687,90.2254764 102.929967,90.1002873 102.929967,89.9744691 L102.929967,83.4489091 L102.222869,83.4489091 C102.081324,83.4489091 101.971233,83.3388182 101.971233,83.1972727 L101.971233,82.694 C101.971233,82.5530836 102.081324,82.4423636 102.222869,82.4423636 L104.64424,82.4423636 C104.785785,82.4423636 104.895876,82.5530836 104.895876,82.694" id="Fill-24" fill="#FEF2E7"></path>
                    <path d="M107.050513,83.4489091 L107.050513,85.8230982 L108.418785,85.8230982 C108.559702,85.8230982 108.669793,85.9331891 108.669793,86.0747345 L108.669793,86.5780073 C108.669793,86.7195527 108.559702,86.8290145 108.418785,86.8290145 L107.050513,86.8290145 L107.050513,89.21956 L108.418785,89.21956 C108.559702,89.21956 108.669793,89.3296509 108.669793,89.4711964 L108.669793,89.9744691 C108.669793,90.1160145 108.559702,90.2254764 108.418785,90.2254764 L106.54724,90.2254764 C106.264778,90.2254764 106.043967,89.9895673 106.043967,89.7228327 L106.043967,82.9456364 C106.043967,82.6625455 106.264778,82.4423636 106.54724,82.4423636 L108.418785,82.4423636 C108.559702,82.4423636 108.669793,82.5530836 108.669793,82.694 L108.669793,83.1972727 C108.669793,83.3388182 108.559702,83.4489091 108.418785,83.4489091 L107.050513,83.4489091" id="Fill-25" fill="#FEF2E7"></path>
                    <path d="M113.608156,84.2667273 L113.608156,88.4017418 C113.608156,89.4082873 112.806065,90.2254764 111.800149,90.2254764 L110.479058,90.2254764 C110.211695,90.2254764 109.975785,89.9895673 109.975785,89.7228327 L109.975785,82.9456364 C109.975785,82.6625455 110.211695,82.4423636 110.479058,82.4423636 L111.800149,82.4423636 C112.806065,82.4423636 113.608156,83.2601818 113.608156,84.2667273 L113.608156,84.2667273 Z M112.601611,84.2667273 C112.601611,83.8106364 112.240513,83.4489091 111.800149,83.4489091 L110.982331,83.4489091 L110.982331,89.2038327 L111.800149,89.2038327 C112.240513,89.2038327 112.601611,88.8421055 112.601611,88.4017418 L112.601611,84.2667273 L112.601611,84.2667273 Z" id="Fill-26" fill="#FEF2E7"></path>
                    <path d="M120.810618,85.0210073 C120.810618,85.5400073 120.606793,85.9960982 120.245065,86.3263709 C120.606793,86.6566436 120.810618,87.1284618 120.810618,87.6468327 L120.810618,88.4017418 C120.810618,89.4082873 119.9928,90.2254764 119.002611,90.2254764 L117.68152,90.2254764 C117.399058,90.2254764 117.178876,89.9895673 117.178876,89.7228327 L117.178876,82.9456364 C117.178876,82.6625455 117.399058,82.4423636 117.68152,82.4423636 L119.002611,82.4423636 C119.9928,82.4423636 120.810618,83.2601818 120.810618,84.2667273 L120.810618,85.0210073 L120.810618,85.0210073 Z M119.804073,84.2667273 C119.804073,83.8106364 119.442975,83.4489091 119.002611,83.4489091 L118.184793,83.4489091 L118.184793,85.8230982 L119.002611,85.8230982 C119.442975,85.8230982 119.804073,85.4613709 119.804073,85.0210073 L119.804073,84.2667273 L119.804073,84.2667273 Z M119.002611,86.8290145 L118.184793,86.8290145 L118.184793,89.2038327 L119.002611,89.2038327 C119.442975,89.2038327 119.804073,88.8421055 119.804073,88.4017418 L119.804073,87.6468327 C119.804073,87.1913709 119.442975,86.8290145 119.002611,86.8290145 L119.002611,86.8290145 Z" id="Fill-27" fill="#FEF2E7"></path>
                    <path d="M125.654618,85.00528 C125.654618,85.52428 125.450164,85.9960982 125.104164,86.3263709 C125.450164,86.6566436 125.654618,87.1127345 125.654618,87.6311055 L125.654618,89.9744691 C125.654618,90.1002873 125.544527,90.2254764 125.402982,90.2254764 L124.899709,90.2254764 C124.758164,90.2254764 124.648702,90.1002873 124.648702,89.9744691 L124.648702,87.6311055 C124.648702,87.1913709 124.286345,86.8290145 123.846611,86.8290145 L123.04452,86.8290145 L123.04452,89.9744691 C123.04452,90.1002873 122.918702,90.2254764 122.792884,90.2254764 L122.29024,90.2254764 C122.148065,90.2254764 122.037975,90.1002873 122.037975,89.9744691 L122.037975,82.9456364 C122.037975,82.6625455 122.258785,82.4423636 122.541247,82.4423636 L123.846611,82.4423636 C124.853156,82.4423636 125.654618,83.2601818 125.654618,84.251 L125.654618,85.00528 L125.654618,85.00528 Z M124.648702,84.251 C124.648702,83.8106364 124.286345,83.4489091 123.846611,83.4489091 L123.04452,83.4489091 L123.04452,85.8230982 L123.846611,85.8230982 C124.286345,85.8230982 124.648702,85.4613709 124.648702,85.00528 L124.648702,84.251 L124.648702,84.251 Z" id="Fill-28" fill="#FEF2E7"></path>
                    <path d="M127.967156,89.9744691 C127.967156,90.1160145 127.857065,90.2254764 127.716149,90.2254764 L127.212876,90.2254764 C127.070702,90.2254764 126.960611,90.1160145 126.960611,89.9744691 L126.960611,82.694 C126.960611,82.5530836 127.070702,82.4423636 127.212876,82.4423636 L127.716149,82.4423636 C127.841338,82.4423636 127.967156,82.5530836 127.967156,82.694 L127.967156,89.9744691" id="Fill-29" fill="#FEF2E7"></path>
                    <path d="M131.883247,84.8008255 L131.883247,84.2667273 C131.883247,83.8106364 131.520891,83.4646364 131.080527,83.4646364 C130.640793,83.4646364 130.279065,83.8106364 130.279065,84.2667273 L130.279065,88.4331964 C130.279065,88.87356 130.640793,89.2352873 131.080527,89.2352873 C131.520891,89.2352873 131.883247,88.87356 131.883247,88.4331964 L131.883247,86.8139164 L131.332793,86.8139164 C131.191247,86.8139164 131.080527,86.7038255 131.080527,86.5780073 L131.080527,86.0747345 C131.080527,85.9331891 131.191247,85.8230982 131.332793,85.8230982 L132.637527,85.8230982 C132.779073,85.8230982 132.889164,85.9331891 132.889164,86.0747345 L132.889164,88.4331964 C132.889164,89.4240145 132.071345,90.2254764 131.080527,90.2254764 C130.090338,90.2254764 129.27252,89.4240145 129.27252,88.4331964 L129.27252,84.2667273 C129.27252,83.2601818 130.090338,82.4580909 131.080527,82.4580909 C132.071345,82.4580909 132.889164,83.2601818 132.889164,84.2667273 L132.889164,84.8008255 C132.889164,84.9423709 132.779073,85.0524618 132.637527,85.0524618 L132.134255,85.0524618 C131.992709,85.0524618 131.883247,84.9423709 131.883247,84.8008255" id="Fill-30" fill="#FEF2E7"></path>
                    <path d="M137.827527,84.2667273 L137.827527,89.9744691 C137.827527,90.1160145 137.717436,90.2254764 137.575891,90.2254764 L137.073247,90.2254764 C136.931702,90.2254764 136.820982,90.1160145 136.820982,89.9744691 L136.820982,86.8453709 L135.201702,86.8453709 L135.201702,89.9744691 C135.201702,90.1160145 135.091611,90.2254764 134.950695,90.2254764 L134.447422,90.2254764 C134.305247,90.2254764 134.195156,90.1160145 134.195156,89.9744691 L134.195156,84.2667273 C134.195156,83.2759091 135.012975,82.4580909 136.01952,82.4580909 C137.010338,82.4580909 137.827527,83.2759091 137.827527,84.2667273 L137.827527,84.2667273 Z M136.820982,84.2667273 C136.820982,83.8263636 136.459884,83.4646364 136.01952,83.4646364 C135.563429,83.4646364 135.201702,83.8263636 135.201702,84.2667273 L135.201702,85.8388255 L136.820982,85.8388255 L136.820982,84.2667273 L136.820982,84.2667273 Z" id="Fill-31" fill="#FEF2E7"></path>
                    <path d="M142.765891,84.2667273 L142.765891,88.4017418 C142.765891,89.4082873 141.9638,90.2254764 140.957255,90.2254764 L139.636793,90.2254764 C139.369429,90.2254764 139.13352,89.9895673 139.13352,89.7228327 L139.13352,82.9456364 C139.13352,82.6625455 139.369429,82.4423636 139.636793,82.4423636 L140.957255,82.4423636 C141.9638,82.4423636 142.765891,83.2601818 142.765891,84.2667273 L142.765891,84.2667273 Z M141.759345,84.2667273 C141.759345,83.8106364 141.398247,83.4489091 140.957255,83.4489091 L140.140065,83.4489091 L140.140065,89.2038327 L140.957255,89.2038327 C141.398247,89.2038327 141.759345,88.8421055 141.759345,88.4017418 L141.759345,84.2667273 L141.759345,84.2667273 Z" id="Fill-32" fill="#FEF2E7"></path>
                    <path d="M145.0778,83.4489091 L145.0778,85.8230982 L146.446073,85.8230982 C146.587618,85.8230982 146.697709,85.9331891 146.697709,86.0747345 L146.697709,86.5780073 C146.697709,86.7195527 146.587618,86.8290145 146.446073,86.8290145 L145.0778,86.8290145 L145.0778,89.21956 L146.446073,89.21956 C146.587618,89.21956 146.697709,89.3296509 146.697709,89.4711964 L146.697709,89.9744691 C146.697709,90.1160145 146.587618,90.2254764 146.446073,90.2254764 L144.574527,90.2254764 C144.292065,90.2254764 144.071884,89.9895673 144.071884,89.7228327 L144.071884,82.9456364 C144.071884,82.6625455 144.292065,82.4423636 144.574527,82.4423636 L146.446073,82.4423636 C146.587618,82.4423636 146.697709,82.5530836 146.697709,82.694 L146.697709,83.1972727 C146.697709,83.3388182 146.587618,83.4489091 146.446073,83.4489091 L145.0778,83.4489091" id="Fill-33" fill="#FEF2E7"></path>
                    <path d="M161.112698,74.0188364 L62.8593927,74.0188364 L62.8593927,74.9624727 L159.307207,74.9624727 L152.595436,84.6120982 L159.434913,94.1057091 L63.0059709,94.1057091 L63.0059709,95.0493455 L161.278149,95.0493455 L153.751076,84.6026618 L161.112698,74.0188364" id="Fill-34" fill="#AE9786"></path>
                    <path d="M109.921684,76.9504 L11.6683782,76.9504 L19.0306291,87.5348545 L11.5029273,97.9809091 L109.775735,97.9809091 L109.775735,97.0372727 L13.3461636,97.0372727 L20.1862691,87.5442909 L13.4738691,77.8940364 L109.921684,77.8940364 L109.921684,76.9504" id="Fill-35" fill="#AE9786"></path>
                    <path d="M68.9282327,14.6269927 L86.74912,14.6269927 L86.74912,15.4127273 L68.9282327,15.4127273 L68.9282327,14.6269927 Z" id="Fill-36" fill="#AE9786"></path>
                    <path d="M66.7824036,14.6269927 L67.6411127,14.6269927 L67.6411127,15.4127273 L66.7824036,15.4127273 L66.7824036,14.6269927 Z" id="Fill-37" fill="#AE9786"></path>
                    <path d="M64.6365745,14.6269927 L65.4952836,14.6269927 L65.4952836,15.4127273 L64.6365745,15.4127273 L64.6365745,14.6269927 Z" id="Fill-38" fill="#AE9786"></path>
                    <path d="M62.4901164,14.6269927 L63.3488255,14.6269927 L63.3488255,15.4127273 L62.4901164,15.4127273 L62.4901164,14.6269927 Z" id="Fill-39" fill="#AE9786"></path>
                    <path d="M86.74912,14.6269927 L104.570007,14.6269927 L104.570007,15.4127273 L86.74912,15.4127273 L86.74912,14.6269927 Z" id="Fill-40" fill="#AE9786"></path>
                    <path d="M105.857756,14.6269927 L106.716465,14.6269927 L106.716465,15.4127273 L105.857756,15.4127273 L105.857756,14.6269927 Z" id="Fill-41" fill="#AE9786"></path>
                    <path d="M108.004844,14.6269927 L108.862295,14.6269927 L108.862295,15.4127273 L108.004844,15.4127273 L108.004844,14.6269927 Z" id="Fill-42" fill="#AE9786"></path>
                    <path d="M110.150044,14.6269927 L111.008753,14.6269927 L111.008753,15.4127273 L110.150044,15.4127273 L110.150044,14.6269927 Z" id="Fill-43" fill="#AE9786"></path>
                    <path d="M54.6390618,126.235269 L56.9088218,134.49712 C54.0496036,135.450822 50.19076,136.403895 45.7871236,136.403895 C35.7097164,136.403895 28.9004364,130.320585 28.9004364,120.47028 C28.9004364,110.57468 35.7097164,104.536665 45.7871236,104.536665 C50.19076,104.536665 54.0496036,105.490367 56.9088218,106.44344 L54.6390618,114.705291 C53.1411964,114.06928 50.9626545,113.570411 48.7381891,113.570411 C43.7444655,113.570411 40.9299127,116.111938 40.9299127,120.47028 C40.9299127,124.827993 43.7444655,127.370149 48.7381891,127.370149 C50.9626545,127.370149 53.1411964,126.87128 54.6390618,126.235269" id="Fill-44" fill="#FEF2E7"></path>
                    <path d="M70.9325164,127.188971 L82.5537127,127.188971 L82.5537127,135.813807 L59.0848473,135.813807 L59.0848473,105.126753 L70.9325164,105.126753 L70.9325164,127.188971" id="Fill-45" fill="#FEF2E7"></path>
                    <path d="M113.374135,105.126753 L113.374135,123.693113 C113.374135,132.409167 107.836247,136.403895 98.5301055,136.403895 C89.2245927,136.403895 83.732,132.409167 83.732,123.693113 L83.732,105.126753 L95.5796691,105.126753 L95.5796691,123.557229 C95.5796691,125.735771 96.0332436,127.370149 98.5301055,127.370149 C101.072262,127.370149 101.526465,125.690476 101.526465,123.557229 L101.526465,105.126753 L113.374135,105.126753" id="Fill-46" fill="#FEF2E7"></path>
                    <path d="M126.853036,136.403895 C122.812385,136.403895 118.591185,136.085575 116.049029,135.767884 L116.049029,105.30856 C118.499967,104.990869 122.721796,104.536665 126.716524,104.536665 C134.660684,104.536665 143.467327,106.261633 143.467327,113.751589 C143.467327,117.110935 141.559924,119.153593 139.336087,120.243807 C141.333451,120.652087 145.010487,122.785335 145.010487,127.234265 C145.010487,134.814811 136.521535,136.403895 126.853036,136.403895 L126.853036,136.403895 Z M127.306611,117.156229 C127.71552,117.202153 128.577375,117.202153 128.985655,117.202153 C130.756545,117.202153 132.935716,116.747949 132.935716,114.523484 C132.935716,112.52612 130.80184,112.026622 129.122167,112.026622 C128.713887,112.026622 127.760185,112.071916 127.306611,112.11784 L127.306611,117.156229 L127.306611,117.156229 Z M133.888789,125.872284 C133.888789,123.420716 131.074236,123.057731 129.213385,123.057731 C128.804476,123.057731 127.760185,123.103655 127.306611,123.148949 L127.306611,128.595618 C127.624302,128.640913 128.895695,128.640913 129.349269,128.640913 C131.21012,128.640913 133.888789,128.096749 133.888789,125.872284 L133.888789,125.872284 Z" id="Fill-47" fill="#FEF2E7"></path>
                    <path d="M68.7187455,154.285175 L86.5396327,154.285175 L86.5396327,155.070909 L68.7187455,155.070909 L68.7187455,154.285175 Z" id="Fill-48" fill="#AE9786"></path>
                    <path d="M66.5722873,154.285175 L67.4309964,154.285175 L67.4309964,155.070909 L66.5722873,155.070909 L66.5722873,154.285175 Z" id="Fill-49" fill="#AE9786"></path>
                    <path d="M64.4270873,154.285175 L65.2851673,154.285175 L65.2851673,155.070909 L64.4270873,155.070909 L64.4270873,154.285175 Z" id="Fill-50" fill="#AE9786"></path>
                    <path d="M62.28,154.285175 L63.1393382,154.285175 L63.1393382,155.070909 L62.28,155.070909 L62.28,154.285175 Z" id="Fill-51" fill="#AE9786"></path>
                    <path d="M86.5396327,154.285175 L104.36052,154.285175 L104.36052,155.070909 L86.5396327,155.070909 L86.5396327,154.285175 Z" id="Fill-52" fill="#AE9786"></path>
                    <path d="M105.648269,154.285175 L106.506978,154.285175 L106.506978,155.070909 L105.648269,155.070909 L105.648269,154.285175 Z" id="Fill-53" fill="#AE9786"></path>
                    <path d="M107.794727,154.285175 L108.652178,154.285175 L108.652178,155.070909 L107.794727,155.070909 L107.794727,154.285175 Z" id="Fill-54" fill="#AE9786"></path>
                    <path d="M109.939927,154.285175 L110.798636,154.285175 L110.798636,155.070909 L109.939927,155.070909 L109.939927,154.285175 Z" id="Fill-55" fill="#AE9786"></path>
                </g>
            </g>
        </g>
    </g>
</svg>